<svg width="181" height="53" viewBox="0 0 181 53" fill="none" xmlns="http://www.w3.org/2000/svg">
<path d="M169.044 11.2721L172.389 17.6272L175.8 11.2721H180.868L175.602 20.2891L181 29.3393H175.966L172.389 23.0507L168.879 29.3393H163.779L169.144 20.2891L163.977 11.2721H169.044Z" fill="#20254D"/>
<path d="M154.96 29.7053C149.462 29.7053 146.084 26.1118 146.084 20.3889C146.084 14.7991 149.495 11.0392 154.761 11.0392C159.497 11.0392 163.206 14.0338 163.206 20.1893V21.5867H150.919C150.919 24.3151 152.542 26.012 155.059 26.012C156.715 26.012 157.907 25.28 158.404 24.182H163.074C162.378 27.5093 159.398 29.7053 154.96 29.7053ZM150.919 18.4923H158.57C158.57 16.2963 157.046 14.7325 154.861 14.7325C152.608 14.7325 151.002 16.4128 150.919 18.4923Z" fill="#20254D"/>
<path d="M133.722 29.6387C129.615 29.6387 126.403 26.3447 126.403 20.3223C126.403 14.1336 129.748 11.0392 133.722 11.0392C136.736 11.0392 138.16 12.8359 138.822 14.2999H138.988V5.24973H143.889V29.3393H139.054V26.4446H138.822C138.127 27.9418 136.636 29.6387 133.722 29.6387ZM135.245 25.7125C137.696 25.7125 139.087 23.5498 139.087 20.2891C139.087 17.0283 137.696 14.9654 135.245 14.9654C132.762 14.9654 131.437 17.1281 131.437 20.2891C131.437 23.4833 132.762 25.7125 135.245 25.7125Z" fill="#20254D"/>
<path d="M124.175 5.24973V29.3393H119.869L109.338 14.0338H109.139V29.3393H104.171V5.24973H108.543L119.008 20.5552H119.24V5.24973H124.175Z" fill="#20254D"/>
<path d="M96.1475 5.24973H101.148V20.888C101.148 26.1784 97.1741 29.672 91.2129 29.672C85.2516 29.672 81.3105 26.1784 81.3105 20.888V5.24973H86.2783V20.4887C86.2783 23.2504 88.2322 25.28 91.2129 25.28C94.2266 25.28 96.1475 23.2504 96.1475 20.4887V5.24973Z" fill="#20254D"/>
<path d="M63.2519 29.3393V5.24973H79.0492V9.37556H68.2196V15.2316H78.0226V19.3574H68.2196V29.3393H63.2519Z" fill="#20254D"/>
<path d="M108.498 50.1607V44.7539C108.498 43.6891 107.993 43.0902 107.115 43.0902C105.89 43.0902 105.269 43.8971 105.269 45.5358V50.1607H103.224V41.3434H105.062L105.236 42.9405H105.467C105.608 41.7593 106.254 41.177 107.628 41.177C109.483 41.177 110.543 42.3582 110.543 44.4211V50.1607H108.498Z" fill="#6BC85C"/>
<path d="M93.222 50.1607V48.2974H96.509V43.2067H93.7188V41.3434H98.5457V48.2974H101.187V50.1607H93.222ZM97.4445 40.0707C96.658 40.0707 96.095 39.5051 96.095 38.7148C96.095 37.9246 96.658 37.359 97.4445 37.359C98.2311 37.359 98.7941 37.9246 98.7941 38.7148C98.7941 39.5051 98.2311 40.0707 97.4445 40.0707Z" fill="#6BC85C"/>
<path d="M88.7014 50.2439L88.5854 48.2974H88.395C88.2543 49.6533 87.2524 50.3271 85.6793 50.3271C83.8247 50.3271 82.7567 49.3871 82.7567 47.7152C82.7567 45.7853 84.1807 44.7206 86.6894 44.7206C87.3766 44.7206 87.9231 44.7705 88.4281 44.8786V44.704C88.4281 43.6725 87.6167 43.215 86.0188 43.1734L83.833 43.1152L83.9986 41.2602L85.8532 41.2852C88.9166 41.3268 90.3904 42.5579 90.3904 44.887V48.3141L91.7151 48.4971V50.1607L88.7014 50.2439ZM88.4281 46.534C87.832 46.4258 87.3187 46.4258 86.7391 46.4258C85.4641 46.4258 84.7851 46.8168 84.7851 47.5821C84.7851 48.2558 85.2571 48.6218 86.1264 48.6218C87.6581 48.6218 88.4281 47.6653 88.4281 46.7502V46.534Z" fill="#6BC85C"/>
<path d="M78.6914 50.1607V44.6707C78.6914 43.6392 78.1864 43.0486 77.3087 43.0486C76.0834 43.0486 75.4624 43.8389 75.4624 45.4526V50.1607H73.4174V37.6834H75.4624V42.9405H75.6611C75.8019 41.7593 76.4477 41.177 77.8221 41.177C79.6767 41.177 80.7365 42.3582 80.7365 44.4211V50.1607H78.6914Z" fill="#6BC85C"/>
<path d="M68.3668 50.3271C64.6659 50.3271 62.803 48.2975 62.803 44.2382C62.803 40.3951 64.7487 38.1825 68.1681 38.1825C69.7495 38.1825 71.008 38.7149 71.6041 39.6548L70.3787 41.1105C69.882 40.4367 69.0789 40.0541 68.1847 40.0541C66.1893 40.0541 64.8894 41.5347 64.8894 44.155C64.8894 47.0248 66.1562 48.4555 68.6483 48.4555C69.4597 48.4555 70.238 48.2891 71.0163 47.9564L71.3971 49.7615C70.4201 50.1441 69.41 50.3271 68.3668 50.3271Z" fill="#6BC85C"/>
<path fill-rule="evenodd" clip-rule="evenodd" d="M18.3695 50.1607C26.9539 50.1607 33.9129 43.1692 33.9129 34.5447C33.9129 25.9201 26.9539 18.9286 18.3695 18.9286C9.78511 18.9286 2.82608 25.9201 2.82608 34.5447C2.82608 43.1692 9.78511 50.1607 18.3695 50.1607ZM18.3695 53C28.5147 53 36.739 44.7373 36.739 34.5447C36.739 24.352 28.5147 16.0893 18.3695 16.0893C8.22431 16.0893 0 24.352 0 34.5447C0 44.7373 8.22431 53 18.3695 53Z" fill="#39B625" fill-opacity="0.5"/>
<path fill-rule="evenodd" clip-rule="evenodd" d="M27.7898 34.0714C36.3742 34.0714 43.3332 27.0799 43.3332 18.4554C43.3332 9.83084 36.3742 2.83929 27.7898 2.83929C19.2054 2.83929 12.2464 9.83084 12.2464 18.4554C12.2464 27.0799 19.2054 34.0714 27.7898 34.0714ZM27.7898 36.9107C37.935 36.9107 46.1593 28.648 46.1593 18.4554C46.1593 8.26274 37.935 0 27.7898 0C17.6446 0 9.42029 8.26274 9.42029 18.4554C9.42029 28.648 17.6446 36.9107 27.7898 36.9107Z" fill="#39B625" fill-opacity="0.5"/>
<path fill-rule="evenodd" clip-rule="evenodd" d="M38.152 50.1607C46.7364 50.1607 53.6955 43.1692 53.6955 34.5447C53.6955 25.9201 46.7364 18.9286 38.152 18.9286C29.5676 18.9286 22.6086 25.9201 22.6086 34.5447C22.6086 43.1692 29.5676 50.1607 38.152 50.1607ZM38.152 53C48.2972 53 56.5216 44.7373 56.5216 34.5447C56.5216 24.352 48.2972 16.0893 38.152 16.0893C28.0068 16.0893 19.7825 24.352 19.7825 34.5447C19.7825 44.7373 28.0068 53 38.152 53Z" fill="#39B625" fill-opacity="0.5"/>
</svg>
