<svg width="34" height="34" viewBox="0 0 34 34" fill="none" xmlns="http://www.w3.org/2000/svg">
<rect width="34" height="34" fill="#ECECEC"/>
<path fill-rule="evenodd" clip-rule="evenodd" d="M22 13.375C22 15.4265 20.6271 17.1574 18.75 17.6991L18.75 23.875C18.75 24.5654 18.1904 25.125 17.5 25.125C16.8096 25.125 16.25 24.5654 16.25 23.875V23.625H13.5V22.125H16.25V20.625H13.5V19.125H16.25V17.6991C14.3729 17.1574 13 15.4265 13 13.375C13 10.8897 15.0147 8.875 17.5 8.875C19.9853 8.875 22 10.8897 22 13.375ZM19 12.375C19 13.2034 18.3284 13.875 17.5 13.875C16.6716 13.875 16 13.2034 16 12.375C16 11.5466 16.6716 10.875 17.5 10.875C18.3284 10.875 19 11.5466 19 12.375Z" fill="#BABABA"/>
</svg>
